<svg width="48" height="40" viewBox="0 0 48 40" fill="none" xmlns="http://www.w3.org/2000/svg">
<path d="M9.15 7.62497C9.71258 7.15629 10.4755 6.89301 11.271 6.89301C12.0665 6.89301 12.8294 7.15629 13.392 7.62497L24 16.465L34.608 7.62497C35.1738 7.16958 35.9316 6.91759 36.7182 6.92329C37.5048 6.92898 38.2572 7.1919 38.8135 7.65543C39.3697 8.11895 39.6852 8.74598 39.692 9.40147C39.6989 10.057 39.3965 10.6885 38.85 11.16L28.242 20L38.85 28.84C39.3965 29.3115 39.6989 29.943 39.692 30.5985C39.6852 31.254 39.3697 31.881 38.8135 32.3445C38.2572 32.808 37.5048 33.071 36.7182 33.0767C35.9316 33.0824 35.1738 32.8304 34.608 32.375L24 23.535L13.392 32.375C12.8262 32.8304 12.0684 33.0824 11.2818 33.0767C10.4952 33.071 9.74277 32.808 9.18654 32.3445C8.63032 31.881 8.31481 31.254 8.30797 30.5985C8.30114 29.943 8.60352 29.3115 9.15 28.84L19.758 20L9.15 11.16C8.58758 10.6912 8.27164 10.0554 8.27164 9.39247C8.27164 8.72956 8.58758 8.09379 9.15 7.62497V7.62497Z" fill="white"/>
</svg>
