<svg width="176" height="128" viewBox="0 0 176 128" fill="none" xmlns="http://www.w3.org/2000/svg">
<g filter="url(#filter0_d_201_2)">
<path d="M40.8 78.76C40.8 76.2 40.1867 74.0133 38.96 72.2C37.7867 70.3867 36.24 68.9733 34.32 67.96C32.4533 66.9467 30.3733 66.04 28.08 65.24C25.7867 64.44 23.4933 63.64 21.2 62.84C18.9067 61.9867 16.8 61 14.88 59.88C13.0133 58.7067 11.4667 57.1067 10.24 55.08C9.06667 53.0533 8.48 50.6 8.48 47.72C8.48 42.76 10.2933 38.8667 13.92 36.04C17.6 33.2133 22.2933 31.8 28 31.8C33.76 31.8 38.3467 33.1067 41.76 35.72C45.1733 38.3333 46.88 41.1867 46.88 44.28C46.88 46.4133 46.4533 48.0133 45.6 49.08C44.8 50.0933 43.84 50.6 42.72 50.6C40.64 50.6 39.3067 50.2 38.72 49.4L38.48 49C39.0133 48.3067 39.28 46.9733 39.28 45C39.28 41.96 38 39.5867 35.44 37.88C32.88 36.12 29.8933 35.24 26.48 35.24C23.12 35.24 20.4533 36.1467 18.48 37.96C16.5067 39.7733 15.52 41.9867 15.52 44.6C15.52 47.2133 16.1067 49.4 17.28 51.16C18.5067 52.8667 20.08 54.2 22 55.16C23.92 56.12 26.0267 56.9733 28.32 57.72C30.6667 58.4667 32.9867 59.2933 35.28 60.2C37.6267 61.0533 39.76 62.12 41.68 63.4C43.6 64.6267 45.1467 66.3867 46.32 68.68C47.5467 70.9733 48.16 73.7467 48.16 77C48.16 82.7067 46.1333 87.08 42.08 90.12C38.0267 93.16 32.9333 94.68 26.8 94.68C20.72 94.68 15.4133 93.1333 10.88 90.04C6.4 86.8933 4.16 82.9733 4.16 78.28C4.16 76.0933 4.58667 74.3867 5.44 73.16C6.29333 71.88 7.30667 71.24 8.48 71.24C10.56 71.24 11.8933 71.5867 12.48 72.28L12.72 72.68C12.24 74.0133 12 75.64 12 77.56C12 81.1867 13.4667 84.36 16.4 87.08C19.3867 89.8 23.28 91.16 28.08 91.16C31.5467 91.16 34.5333 89.96 37.04 87.56C39.5467 85.1067 40.8 82.1733 40.8 78.76ZM67.5819 54.84C72.3285 54.84 76.1952 56.4133 79.1819 59.56C82.1685 62.7067 83.6619 67 83.6619 72.44C83.6619 77.8267 82.2485 82.3067 79.4219 85.88C76.6485 89.4533 72.9152 91.24 68.2219 91.24C63.5285 91.24 59.6085 89.64 56.4619 86.44C53.3685 83.1867 51.8219 78.7067 51.8219 73C51.8219 67.24 53.2619 62.7867 56.1419 59.64C59.0752 56.44 62.8885 54.84 67.5819 54.84ZM67.6619 57.96C66.2219 57.96 64.9685 58.3333 63.9019 59.08C62.8885 59.7733 62.3819 60.7867 62.3819 62.12C62.3819 65.5333 63.7152 68.8133 66.3819 71.96C69.0485 75.0533 72.2219 77.1067 75.9019 78.12C76.0085 76.0933 76.0619 74.36 76.0619 72.92C76.0619 67.3733 75.4752 63.5067 74.3019 61.32C73.1285 59.08 70.9152 57.96 67.6619 57.96ZM59.4219 72.92C59.4219 78.36 60.0885 82.2533 61.4219 84.6C62.8085 86.9467 65.0485 88.12 68.1419 88.12C70.2752 88.12 71.9019 87.5867 73.0219 86.52C74.1952 85.4 74.9952 83.6133 75.4219 81.16C71.9552 80.4133 68.7552 78.84 65.8219 76.44C62.9419 74.04 60.8352 71.3733 59.5019 68.44C59.4485 69.3467 59.4219 70.84 59.4219 72.92ZM112.676 72.04C113.636 72.04 114.116 73.4533 114.116 76.28C114.116 80.3867 112.996 83.9067 110.756 86.84C108.516 89.7733 105.663 91.24 102.196 91.24C97.8763 91.24 94.6496 89.96 92.5163 87.4C90.3829 84.84 89.3163 81.2133 89.3163 76.52V46.44C89.3163 39.56 90.0363 34.52 91.4763 31.32C92.9163 28.12 95.4496 26.52 99.0763 26.52C104.356 26.52 106.996 30.0933 106.996 37.24C106.996 42.6267 105.93 46.9467 103.796 50.2C101.716 53.4533 99.3163 55.88 96.5963 57.48V78.92C96.5963 81.96 97.1829 84.2533 98.3563 85.8C99.5296 87.3467 101.13 88.12 103.156 88.12C105.183 88.12 107.076 86.8933 108.836 84.44C110.596 81.9867 111.476 78.0133 111.476 72.52C111.583 72.2 111.983 72.04 112.676 72.04ZM103.556 37.32C103.556 32.2 102.276 29.64 99.7162 29.64C99.0763 29.64 98.5696 29.8533 98.1963 30.28C97.8763 30.7067 97.5829 31.7733 97.3163 33.48C96.8363 36.0933 96.5963 42.9733 96.5963 54.12C101.236 50.76 103.556 45.16 103.556 37.32Z" fill="white"/>
</g>
<path d="M16.638 102.969V104.671H12.268V119H10.175V104.671H5.782V102.969H16.638ZM21.3074 108.443C21.6754 107.722 22.1967 107.163 22.8714 106.764C23.5614 106.365 24.397 106.166 25.3784 106.166V108.328H24.8264C22.4804 108.328 21.3074 109.601 21.3074 112.146V119H19.2144V106.396H21.3074V108.443ZM27.0124 112.652C27.0124 111.364 27.2731 110.237 27.7944 109.271C28.3158 108.29 29.0288 107.531 29.9334 106.994C30.8534 106.457 31.8731 106.189 32.9924 106.189C34.0964 106.189 35.0548 106.427 35.8674 106.902C36.6801 107.377 37.2858 107.975 37.6844 108.696V106.396H39.8004V119H37.6844V116.654C37.2704 117.39 36.6494 118.003 35.8214 118.494C35.0088 118.969 34.0581 119.207 32.9694 119.207C31.8501 119.207 30.8381 118.931 29.9334 118.379C29.0288 117.827 28.3158 117.053 27.7944 116.056C27.2731 115.059 27.0124 113.925 27.0124 112.652ZM37.6844 112.675C37.6844 111.724 37.4928 110.896 37.1094 110.191C36.7261 109.486 36.2048 108.949 35.5454 108.581C34.9014 108.198 34.1884 108.006 33.4064 108.006C32.6244 108.006 31.9114 108.19 31.2674 108.558C30.6234 108.926 30.1098 109.463 29.7264 110.168C29.3431 110.873 29.1514 111.701 29.1514 112.652C29.1514 113.618 29.3431 114.461 29.7264 115.182C30.1098 115.887 30.6234 116.432 31.2674 116.815C31.9114 117.183 32.6244 117.367 33.4064 117.367C34.1884 117.367 34.9014 117.183 35.5454 116.815C36.2048 116.432 36.7261 115.887 37.1094 115.182C37.4928 114.461 37.6844 113.626 37.6844 112.675ZM48.0294 117.068L51.9394 106.396H54.1704L49.2254 119H46.7874L41.8424 106.396H44.0964L48.0294 117.068ZM67.73 112.215C67.73 112.614 67.707 113.035 67.661 113.48H57.587C57.6637 114.722 58.0853 115.696 58.852 116.401C59.634 117.091 60.577 117.436 61.681 117.436C62.5857 117.436 63.337 117.229 63.935 116.815C64.5483 116.386 64.9777 115.818 65.223 115.113H67.477C67.1397 116.324 66.465 117.313 65.453 118.08C64.441 118.831 63.1837 119.207 61.681 119.207C60.485 119.207 59.4117 118.939 58.461 118.402C57.5257 117.865 56.7897 117.106 56.253 116.125C55.7163 115.128 55.448 113.978 55.448 112.675C55.448 111.372 55.7087 110.229 56.23 109.248C56.7513 108.267 57.4797 107.515 58.415 106.994C59.3657 106.457 60.4543 106.189 61.681 106.189C62.877 106.189 63.935 106.45 64.855 106.971C65.775 107.492 66.4803 108.213 66.971 109.133C67.477 110.038 67.73 111.065 67.73 112.215ZM65.568 111.778C65.568 110.981 65.3917 110.298 65.039 109.731C64.6863 109.148 64.2033 108.711 63.59 108.42C62.992 108.113 62.325 107.96 61.589 107.96C60.531 107.96 59.6263 108.297 58.875 108.972C58.139 109.647 57.7173 110.582 57.61 111.778H65.568ZM72.5857 101.98V119H70.4927V101.98H72.5857ZM93.0027 107.661C93.0027 108.995 92.5427 110.107 91.6227 110.996C90.718 111.87 89.3303 112.307 87.4597 112.307H84.3777V119H82.2847V102.969H87.4597C89.269 102.969 90.6413 103.406 91.5767 104.28C92.5273 105.154 93.0027 106.281 93.0027 107.661ZM87.4597 110.582C88.625 110.582 89.4837 110.329 90.0357 109.823C90.5877 109.317 90.8637 108.596 90.8637 107.661C90.8637 105.683 89.729 104.694 87.4597 104.694H84.3777V110.582H87.4597ZM97.697 101.98V119H95.604V101.98H97.697ZM100.482 112.652C100.482 111.364 100.743 110.237 101.264 109.271C101.785 108.29 102.498 107.531 103.403 106.994C104.323 106.457 105.343 106.189 106.462 106.189C107.566 106.189 108.524 106.427 109.337 106.902C110.15 107.377 110.755 107.975 111.154 108.696V106.396H113.27V119H111.154V116.654C110.74 117.39 110.119 118.003 109.291 118.494C108.478 118.969 107.528 119.207 106.439 119.207C105.32 119.207 104.308 118.931 103.403 118.379C102.498 117.827 101.785 117.053 101.264 116.056C100.743 115.059 100.482 113.925 100.482 112.652ZM111.154 112.675C111.154 111.724 110.962 110.896 110.579 110.191C110.196 109.486 109.674 108.949 109.015 108.581C108.371 108.198 107.658 108.006 106.876 108.006C106.094 108.006 105.381 108.19 104.737 108.558C104.093 108.926 103.579 109.463 103.196 110.168C102.813 110.873 102.621 111.701 102.621 112.652C102.621 113.618 102.813 114.461 103.196 115.182C103.579 115.887 104.093 116.432 104.737 116.815C105.381 117.183 106.094 117.367 106.876 117.367C107.658 117.367 108.371 117.183 109.015 116.815C109.674 116.432 110.196 115.887 110.579 115.182C110.962 114.461 111.154 113.626 111.154 112.675ZM122.948 106.166C124.481 106.166 125.723 106.634 126.674 107.569C127.625 108.489 128.1 109.823 128.1 111.571V119H126.03V111.87C126.03 110.613 125.716 109.654 125.087 108.995C124.458 108.32 123.6 107.983 122.511 107.983C121.407 107.983 120.525 108.328 119.866 109.018C119.222 109.708 118.9 110.712 118.9 112.031V119H116.807V106.396H118.9V108.19C119.314 107.546 119.874 107.048 120.579 106.695C121.3 106.342 122.089 106.166 122.948 106.166ZM137.66 106.166C139.193 106.166 140.435 106.634 141.386 107.569C142.337 108.489 142.812 109.823 142.812 111.571V119H140.742V111.87C140.742 110.613 140.428 109.654 139.799 108.995C139.17 108.32 138.312 107.983 137.223 107.983C136.119 107.983 135.237 108.328 134.578 109.018C133.934 109.708 133.612 110.712 133.612 112.031V119H131.519V106.396H133.612V108.19C134.026 107.546 134.586 107.048 135.291 106.695C136.012 106.342 136.801 106.166 137.66 106.166ZM157.731 112.215C157.731 112.614 157.708 113.035 157.662 113.48H147.588C147.665 114.722 148.086 115.696 148.853 116.401C149.635 117.091 150.578 117.436 151.682 117.436C152.587 117.436 153.338 117.229 153.936 116.815C154.549 116.386 154.979 115.818 155.224 115.113H157.478C157.141 116.324 156.466 117.313 155.454 118.08C154.442 118.831 153.185 119.207 151.682 119.207C150.486 119.207 149.413 118.939 148.462 118.402C147.527 117.865 146.791 117.106 146.254 116.125C145.717 115.128 145.449 113.978 145.449 112.675C145.449 111.372 145.71 110.229 146.231 109.248C146.752 108.267 147.481 107.515 148.416 106.994C149.367 106.457 150.455 106.189 151.682 106.189C152.878 106.189 153.936 106.45 154.856 106.971C155.776 107.492 156.481 108.213 156.972 109.133C157.478 110.038 157.731 111.065 157.731 112.215ZM155.569 111.778C155.569 110.981 155.393 110.298 155.04 109.731C154.687 109.148 154.204 108.711 153.591 108.42C152.993 108.113 152.326 107.96 151.59 107.96C150.532 107.96 149.627 108.297 148.876 108.972C148.14 109.647 147.718 110.582 147.611 111.778H155.569ZM162.587 108.443C162.955 107.722 163.476 107.163 164.151 106.764C164.841 106.365 165.676 106.166 166.658 106.166V108.328H166.106C163.76 108.328 162.587 109.601 162.587 112.146V119H160.494V106.396H162.587V108.443Z" fill="white"/>
<path d="M172.044 56.5435L163.446 53.7723C157.947 51.9578 154.726 47.5079 153.213 41.9162L149.43 23.4869C149.331 23.1228 149.091 22.6352 148.35 22.6352C147.727 22.6352 147.369 23.1228 147.27 23.4869L143.487 41.9223C141.968 47.5141 138.753 51.964 133.254 53.7785L124.656 56.5497C123.44 56.9447 123.422 58.6605 124.632 59.074L133.291 62.055C138.771 63.8757 141.968 68.3194 143.487 73.8865L147.276 92.112C147.375 92.4762 147.579 93.1304 148.356 93.1304C149.177 93.1304 149.338 92.4762 149.436 92.112L153.226 73.8865C154.744 68.3133 157.941 63.8695 163.422 62.055L172.081 59.074C173.278 58.6543 173.26 56.9385 172.044 56.5435Z" fill="#FDD835"/>
<path d="M172.859 57.315C172.723 56.9755 172.457 56.6793 172.044 56.5435L163.446 53.7723C157.947 51.9578 154.726 47.5079 153.213 41.9162L149.43 23.4869C149.375 23.2771 149.177 22.8944 148.949 22.7834L150.171 41.2805C151.078 49.7236 151.856 53.6983 158.595 54.8586C164.385 55.8584 171.081 57.0064 172.859 57.315Z" fill="#FFEE58"/>
<path d="M172.877 58.2778L157.966 61.697C152.714 63.0301 149.819 66.0729 149.819 74.0346L148.356 93.1304C148.856 93.081 149.263 92.8094 149.436 92.112L153.226 73.8865C154.744 68.3133 157.941 63.8695 163.422 62.055L172.081 59.074C172.488 58.9258 172.747 58.6234 172.877 58.2778Z" fill="#FBDD8E"/>
<path d="M122.805 72.578C117.663 70.8808 117.194 68.9675 116.33 65.7396L114.176 58.1852C114.047 57.6977 112.775 57.6977 112.64 58.1852L111.177 65.1656C110.307 68.3812 108.455 70.9363 105.295 71.9794L100.259 74.1642C99.5613 74.3926 99.549 75.3801 100.246 75.6146L105.32 77.4106C108.467 78.4537 110.307 81.0088 111.183 84.212L112.646 90.89C112.782 91.3776 114.047 91.3776 114.176 90.89L115.892 84.2429C116.762 81.0212 118.095 78.4598 122.373 77.4106L127.137 75.6146C127.835 75.3739 127.829 74.3864 127.125 74.158L122.805 72.578Z" fill="#FDD835"/>
<path d="M114.584 65.6285C115.108 70.4796 115.374 71.8251 119.305 72.8311L127.495 74.4296C127.409 74.3123 127.285 74.2136 127.119 74.1642L122.798 72.578C118.287 71.0351 117.04 69.0724 116.195 65.1471C115.349 61.2218 114.448 58.6605 114.448 58.6605C114.133 57.8149 113.683 57.8581 113.683 57.8581L114.584 65.6285Z" fill="#FFEE58"/>
<path d="M114.732 82.5641C114.732 77.9908 117.231 75.7257 121.206 75.7257L127.39 75.4727C127.39 75.4727 127.032 75.9479 126.409 76.096L122.373 77.4106C118.947 78.787 117.386 79.4782 116.324 84.1627C116.324 84.1627 114.954 89.6124 114.695 90.1864C114.337 90.9888 113.911 91.1554 113.911 91.1554L114.732 82.5641Z" fill="#FBDD8E"/>
<path d="M133.871 36.3677C134.216 36.2504 134.204 35.7566 133.852 35.6579L129.088 34.3741C128.598 34.2412 128.15 33.9839 127.789 33.627C127.428 33.2701 127.165 32.8259 127.026 32.3374L125.15 24.5917C125.057 24.2152 124.52 24.2152 124.428 24.5979L122.663 32.3127C122.529 32.8146 122.265 33.2719 121.896 33.6375C121.527 34.0031 121.067 34.2637 120.564 34.3927L115.83 35.6209C115.479 35.7134 115.454 36.2072 115.8 36.3306L120.793 38.0587C121.688 38.3673 122.379 39.0956 122.65 40.0029L124.434 47.1561C124.527 47.5264 125.057 47.5326 125.15 47.1561L126.995 39.9782C127.132 39.5302 127.373 39.1213 127.7 38.7854C128.026 38.4494 128.428 38.1961 128.872 38.0464L133.871 36.3677Z" fill="#FBDD8E" stroke="#FBDD8E" stroke-miterlimit="10"/>
<defs>
<filter id="filter0_d_201_2" x="0.159973" y="26.52" width="117.956" height="76.16" filterUnits="userSpaceOnUse" color-interpolation-filters="sRGB">
<feFlood flood-opacity="0" result="BackgroundImageFix"/>
<feColorMatrix in="SourceAlpha" type="matrix" values="0 0 0 0 0 0 0 0 0 0 0 0 0 0 0 0 0 0 127 0" result="hardAlpha"/>
<feOffset dy="4"/>
<feGaussianBlur stdDeviation="2"/>
<feComposite in2="hardAlpha" operator="out"/>
<feColorMatrix type="matrix" values="0 0 0 0 0 0 0 0 0 0 0 0 0 0 0 0 0 0 0.25 0"/>
<feBlend mode="normal" in2="BackgroundImageFix" result="effect1_dropShadow_201_2"/>
<feBlend mode="normal" in="SourceGraphic" in2="effect1_dropShadow_201_2" result="shape"/>
</filter>
</defs>
</svg>
